<?xml version="1.0" encoding="UTF-8"?>
<svg width="21px" height="23px" viewBox="0 0 21 23" version="1.1" xmlns="http://www.w3.org/2000/svg" xmlns:xlink="http://www.w3.org/1999/xlink">
    <!-- Generator: Sketch 62 (91390) - https://sketch.com -->
    <title>Combined Shape</title>
    <desc>Created with Sketch.</desc>
    <g id="Page-1" stroke="none" stroke-width="1" fill="none" fill-rule="evenodd">
        <g id="Summer-Friday_About_Desktop" transform="translate(-1863.000000, -61.000000)" fill="#2B2B2B" fill-rule="nonzero">
            <path d="M1873.346,61.003 C1876.03733,61.088116 1878.24948,63.1245448 1878.57661,65.7743986 L1878.6,66.003 L1881.401,66.003 C1881.69474,66.0117182 1881.94018,66.2181873 1882.00519,66.4966757 L1882.02,66.592 L1883.768,82.328 C1883.78946,82.5155109 1883.73429,82.703741 1883.615,82.85 C1883.52366,82.962318 1883.39604,83.0373465 1883.25599,83.0636177 L1883.149,83.074 L1863.619,83.074 C1863.43804,83.0725301 1863.26718,82.9903975 1863.153,82.85 C1863.05757,82.7329928 1863.00318,82.5891241 1862.99622,82.4402513 L1863,82.328 L1864.753,66.592 C1864.77673,66.2989168 1864.99542,66.0641004 1865.277,66.0130416 L1865.373,66.003 L1868.092,66.003 C1868.3165,63.2425051 1870.57778,61.0905479 1873.346,61.003 Z M1880.846,67.336 L1865.926,67.336 L1864.326,81.736 L1882.446,81.736 L1880.846,67.336 Z M1873.353,62.336 C1871.29401,62.3986132 1869.59463,63.9588326 1869.357,66.002 L1869.357,66.002 L1877.347,66.002 C1877.10932,63.9584675 1875.40937,62.3981265 1873.353,62.336 L1873.353,62.336 Z" id="Combined-Shape"></path>
        </g>
    </g>
</svg>